<?xml version="1.0" encoding="iso-8859-1"?>
<!-- Generator: Adobe Illustrator 19.0.0, SVG Export Plug-In . SVG Version: 6.00 Build 0)  -->
<svg version="1.1" id="Capa_1" xmlns="http://www.w3.org/2000/svg" xmlns:xlink="http://www.w3.org/1999/xlink" x="0px" y="0px"
	 viewBox="0 0 512.001 512.001" style="enable-background:new 0 0 512.001 512.001;" xml:space="preserve">
<path style="fill:#DBD9DC;" d="M231.015,185.54c-19.269,2.856-35.583,12.059-58.397,25.552
	c-33.225,19.65-83.333,33.404-123.093,9.215l144.983-82.225L231.015,185.54z"/>
<path style="fill:#00AAF0;" d="M453.129,12.414c-70.873-11.84-116.071,6.935-116.071,6.935l90.398,82.748l37.8-64.521
	C471.426,27.293,464.957,14.39,453.129,12.414z"/>
<path style="fill:#00C3FF;" d="M488,217.889C479.939,101.209,384.716,7.1,267.957,0.289c-43.435-2.534-101.452,11.758-131.52,35.748
	c-45.786,36.531-53.7,68.968-54.333,85.122c-0.29,7.389-4.119,14.168-10.015,18.632c-38.007,28.773-47.731,51.98-48.637,67.241
	c-0.657,11.07,10.312,19.239,21.036,16.415c63.819-16.804,111.752-50.247,134.68-68.713c7.606-6.126,18.958-4.616,24.247,3.593
	c34.965,54.263,96.957,73.292,134.167,79.956l0.178,1.127c8.396,11.814,14.699,25.332,18.339,40.136
	c19.714,80.187-40.45,151.85-117.35,151.85c-15.367,0-34.055-0.811-49.987-2.31l-72.749-40.138
	c-3.398-1.875-7.331,1.506-5.922,5.122c5.079,13.039,15.911,35.57,34.478,50.751c3.82,3.124,4.205,8.851,0.71,12.334
	c-17.769,17.708-28.579,37.104-34.112,48.933c-1.707,3.649,2.296,7.318,5.824,5.371l80.548-44.44
	c21.555,1.459,45.442,2.229,56.351,2.229C389.021,469.249,497.475,355.043,488,217.889z"/>
<path style="fill:#00AAF0;" d="M23.453,207.031c-0.657,11.07,10.312,19.239,21.036,16.415
	c63.819-16.804,111.753-50.246,134.68-68.713c7.606-6.125,18.958-4.615,24.247,3.594c34.965,54.263,96.957,73.292,134.167,79.956
	l0.178,1.127c8.396,11.814,14.699,25.332,18.339,40.136c19.714,80.187-40.45,151.85-117.35,151.85
	c-15.367,0-34.055-0.811-49.987-2.31l-72.749-40.138c-3.399-1.875-7.331,1.506-5.922,5.123c5.079,13.039,15.912,35.57,34.479,50.751
	c3.82,3.124,4.205,8.851,0.71,12.334c-17.769,17.708-28.579,37.104-34.112,48.933c-1.707,3.649,2.296,7.318,5.824,5.371
	l80.547-44.44c21.555,1.459,45.442,2.229,56.351,2.229c32.611,0,63.641-6.706,91.862-18.726
	c163.989-101.27,101.721-292.382,18.771-346.34C257.091,34.299,130.883,88.537,72.09,139.791
	C34.084,168.563,24.359,191.77,23.453,207.031z"/>
<path style="fill:#DBD9DC;" d="M386.086,180.224c-16.29-25.006-38.186-45.969-64.726-59.69c-5.052-2.612-10.382-4.626-15.868-6.09
	c-4.34-1.158-8.416,2.779-7.408,7.156c12.134,52.653,78.59,62.416,70.897,116.513c-0.3,2.113-2.251,3.644-4.377,3.46
	c-5.254-0.454-15.596-1.497-28.095-3.537c8.396,11.814,15.951,26.705,19.591,41.51c19.714,80.187-40.45,151.85-117.35,151.85
	c-15.367,0-34.055-0.811-49.987-2.31C389.558,482.809,463.614,299.232,386.086,180.224z"/>
<path style="fill:#4B3F4E;" d="M181.992,125.044L181.992,125.044c-9.217,0-16.689-7.472-16.689-16.689v-8.344
	c0-9.217,7.472-16.689,16.689-16.689l0,0c9.217,0,16.689,7.472,16.689,16.689v8.344
	C198.681,117.572,191.209,125.044,181.992,125.044z"/>
<circle style="fill:#FFFFFF;" cx="181.991" cy="100.01" r="8.344"/>
<g>
</g>
<g>
</g>
<g>
</g>
<g>
</g>
<g>
</g>
<g>
</g>
<g>
</g>
<g>
</g>
<g>
</g>
<g>
</g>
<g>
</g>
<g>
</g>
<g>
</g>
<g>
</g>
<g>
</g>
</svg>
