<svg id="Layer_1" enable-background="new 0 0 64 64" height="512" viewBox="0 0 64 64" width="512" xmlns="http://www.w3.org/2000/svg" xmlns:xlink="http://www.w3.org/1999/xlink"><linearGradient id="lg1"><stop offset="0" stop-color="#4150e1"/><stop offset="1" stop-color="#2b3594"/></linearGradient><linearGradient id="SVGID_1_" gradientUnits="userSpaceOnUse" x1="32" x2="32" xlink:href="#lg1" y1="29" y2="3"/><linearGradient id="lg2"><stop offset="0" stop-color="#fff688"/><stop offset="1" stop-color="#fff13b"/></linearGradient><linearGradient id="SVGID_2_" gradientUnits="userSpaceOnUse" x1="32" x2="32" xlink:href="#lg2" y1="8" y2="24"/><linearGradient id="SVGID_3_" gradientUnits="userSpaceOnUse" x1="32" x2="32" y1="32" y2="61"><stop offset="0" stop-color="#55bad4"/><stop offset="1" stop-color="#14a6cc"/></linearGradient><linearGradient id="SVGID_4_" gradientUnits="userSpaceOnUse" x1="32" x2="32" y1="53" y2="55"><stop offset="0" stop-color="#5972ea"/><stop offset="1" stop-color="#2f4fe5"/></linearGradient><linearGradient id="SVGID_5_" gradientUnits="userSpaceOnUse" x1="36.589" x2="36.589" xlink:href="#lg2" y1="35" y2="41"/><linearGradient id="SVGID_6_" gradientUnits="userSpaceOnUse" x1="16" x2="16" xlink:href="#lg1" y1="61" y2="45"/><linearGradient id="SVGID_7_" gradientUnits="userSpaceOnUse" x1="16" x2="16" xlink:href="#lg2" y1="49" y2="57"/><linearGradient id="SVGID_8_" gradientUnits="userSpaceOnUse" x1="48" x2="48" xlink:href="#lg1" y1="61" y2="45"/><linearGradient id="SVGID_9_" gradientUnits="userSpaceOnUse" x1="48" x2="48" xlink:href="#lg2" y1="49" y2="57"/><g><g><g><circle cx="32" cy="16" fill="url(#SVGID_1_)" r="13"/><path d="m37.894 14.553c-.169-.339-.515-.553-.894-.553h-3v-5c0-.431-.275-.812-.684-.948-.41-.137-.858.005-1.116.348l-6 8c-.228.303-.264.708-.095 1.047.17.339.516.553.895.553h3v5c0 .431.275.812.684.948.104.035.21.052.316.052.309 0 .607-.144.8-.4l6-8c.227-.303.263-.708.094-1.047z" fill="url(#SVGID_2_)"/></g></g><g><path d="m63.98 49.804-2-10c-.093-.467-.503-.804-.98-.804h-3c-3.792 0-5.84-1.325-8.211-2.859-2.999-1.942-6.398-4.141-13.789-4.141-5.677 0-11.198 3.312-15.635 5.975-2.593 1.555-5.042 3.025-6.365 3.025h-3c-6.717 0-11 6.566-11 10v3c0 1.654 1.346 3 3 3h6.083c1.423 2.449 4.071 4 6.917 4s5.494-1.551 6.917-4h18.166c1.423 2.449 4.071 4 6.917 4s5.494-1.551 6.917-4h3.083c.182 0 .359-.049.515-.143.561-.336 5.485-3.391 5.485-6.857 0-.065-.006-.132-.02-.196z" fill="url(#SVGID_3_)"/><g><path d="m37 55h-10c-.553 0-1-.447-1-1s.447-1 1-1h10c.553 0 1 .447 1 1s-.447 1-1 1z" fill="url(#SVGID_4_)"/></g></g><path d="m48.641 39.15c-.35-.217-.691-.436-1.025-.652-2.781-1.799-5.407-3.498-11.616-3.498-3.807 0-7.918 2.091-11.438 4.136-.391.227-.58.688-.463 1.124.117.437.514.74.966.74h23.048c.446 0 .838-.296.961-.726.123-.429-.055-.887-.433-1.124z" fill="url(#SVGID_5_)"/><circle cx="16" cy="53" fill="url(#SVGID_6_)" r="8"/><g><circle cx="16" cy="53" fill="url(#SVGID_7_)" r="4"/></g><circle cx="48" cy="53" fill="url(#SVGID_8_)" r="8"/><g><circle cx="48" cy="53" fill="url(#SVGID_9_)" r="4"/></g></g></svg>