<svg height="512" viewBox="0 0 64 64" width="512" xmlns="http://www.w3.org/2000/svg"><g id="_34-fire_engine" data-name="34-fire engine"><path d="m16 12h7v3h-7z" fill="#fcea96"/><path d="m16 14h7v1h-7z" fill="#fce277"/><path d="m28 19h35v25h-35z" fill="#e54545"/><path d="m47 30h13v4h-13z" fill="#cdcdcd"/><circle cx="34" cy="32" fill="#fccd01" r="2"/><circle cx="41" cy="32" fill="#fccd01" r="2"/><path d="m25 21h3v23h-3z" fill="#ac3434"/><path d="m1 44v-13l5-16h19v29z" fill="#e54545"/><path d="m1 37h62v4h-62z" fill="#fffcfb"/><path d="m1 44h62v4h-62z" fill="#e1dfe0"/><path d="m1 33h3v4h-3z" fill="#fcea96"/><path d="m1 35h3v2h-3z" fill="#fce277"/><path d="m8 15 1-4h3l1 4z" fill="#0c79bc"/><path d="m12 18v11l-4.43.81-1.99.36-4.58.83.22-.71.78-2.49 3.06-9.8z" fill="#bee1f5"/><path d="m15 18h7v11h-7z" fill="#bee1f5"/><g fill="#e5f3fb"><path d="m11 18-9.179 12.851 1.149-.209 9.03-12.642z"/><path d="m21 18-6 8.4v-1.4l5-7z"/><path d="m22 19.4v1.4l-5.86 8.2h-1z"/><path d="m10 18-8.78 12.29.78-2.49 7-9.8z"/><path d="m12 20.89v2.71l-4.43 6.21-1.99.36z"/></g><path d="m46 40a6 6 0 1 0 6 6 6 6 0 0 0 -6-6zm0 9a3 3 0 1 1 3-3 3 3 0 0 1 -3 3z" fill="#626262"/><path d="m13 40a6 6 0 1 0 6 6 6 6 0 0 0 -6-6zm0 9a3 3 0 1 1 3-3 3 3 0 0 1 -3 3z" fill="#626262"/><circle cx="13" cy="46" fill="#cbc3c1" r="3"/><circle cx="46" cy="46" fill="#cbc3c1" r="3"/><path d="m61 23v-2h-30v2h2v2h-2v2h30v-2h-2v-2zm-18 0h2v2h-2zm-2 2h-2v-2h2zm6-2h2v2h-2zm4 0h2v2h-2zm-16 0h2v2h-2zm22 2h-2v-2h2z" fill="#364956"/><path d="m34 30a2 2 0 0 0 0 4z" fill="#fde167"/><path d="m41 30a2 2 0 0 0 0 4z" fill="#fde167"/><path d="m47 30h13v2h-13z" fill="#d7d7d7"/><path d="m12.5 13-.5-2h-3l-.5 2z" fill="#3d94c9"/><path d="m8.424 48a4.95 4.95 0 0 1 -.424-2 5 5 0 0 1 10 0 4.95 4.95 0 0 1 -.424 2h2.124a7 7 0 1 0 -13.4 0z" fill="#981f1f"/><path d="m41.424 48a4.95 4.95 0 0 1 -.424-2 5 5 0 0 1 10 0 4.95 4.95 0 0 1 -.424 2h2.129a7 7 0 1 0 -13.405 0z" fill="#981f1f"/></g></svg>