<svg id="Layer_1" enable-background="new 0 0 512 512" height="512" viewBox="0 0 512 512" width="512" xmlns="http://www.w3.org/2000/svg"><path d="m217.354 142.435c-4.143 0-7.5 3.357-7.5 7.5v48.463c0 4.143 3.357 7.5 7.5 7.5s7.5-3.357 7.5-7.5v-48.463c0-4.143-3.358-7.5-7.5-7.5z" fill="#4380a0"/><path d="m398.771 491.49h-92.292v-164.718c0-2.209 1.791-4 4-4h84.292c2.209 0 4 1.791 4 4z" fill="#07a9f0"/><path d="m205.521 491.49h-92.292v-222.733c0-2.209 1.791-4 4-4h84.292c2.209 0 4 1.791 4 4z" fill="#ffd54f"/><path d="m470.883 491.49h-72.113v-248.234c0-11.457 9.288-20.744 20.744-20.744h30.624c11.457 0 20.744 9.288 20.744 20.744v248.234z" fill="#f76c57"/><path d="m470.88 243.26v248.23h-30.9v-248.23c0-11.41-9.21-20.66-20.61-20.74.05 0 .1-.01.14-.01h30.63c11.46 0 20.74 9.29 20.74 20.75z" fill="#e7387f"/><path d="m72.022 103.679h41.207v402.602h-41.207z" fill="#e7387f"/><path d="m140.01 70.61v33.91c0 7.71-6.24 13.95-13.94 13.95h-66.88c-7.71 0-13.95-6.24-13.95-13.95v-33.91c0-7.71 6.24-13.95 13.95-13.95h66.88c7.7 0 13.94 6.24 13.94 13.95z" fill="#f76c57"/><path d="m126.066 56.66h-30.906c7.703 0 13.948 6.245 13.948 13.948v33.914c0 7.703-6.245 13.948-13.948 13.948h30.905c7.703 0 13.948-6.245 13.948-13.948v-33.914c.001-7.703-6.244-13.948-13.947-13.948z" fill="#e7387f"/><path d="m306.479 280.701v210.789h-100.958v-298.967c0-2.209 1.791-4 4-4h24.966c2.209 0 4 1.791 4 4v20.186c0 20.78 16.845 37.625 37.625 37.625 16.771 0 30.367 13.596 30.367 30.367z" fill="#f3f3f3"/><path d="m276.112 250.334c-20.78 0-37.625-16.845-37.625-37.625v-20.186c0-2.209-1.791-4-4-4h-24.966c-2.209 0-4 1.791-4 4v20.186c0 20.694 16.931 37.625 37.625 37.625h2.06c16.771 0 30.367 13.596 30.367 30.367v210.789h30.905v-210.789c.001-16.771-13.595-30.367-30.366-30.367z" fill="#e4e4e4"/><path d="m306.479 325.34h-44.298c-8.534 0-15.453-6.918-15.453-15.453 0-8.534 6.918-15.453 15.453-15.453h44.298z" fill="#71f6fc"/><path d="m306.479 382.787h-44.298c-8.534 0-15.453-6.918-15.453-15.453 0-8.534 6.918-15.453 15.453-15.453h44.298z" fill="#71f6fc"/><path d="m306.479 440.234h-44.298c-8.534 0-15.453-6.918-15.453-15.453 0-8.534 6.918-15.453 15.453-15.453h44.298z" fill="#71f6fc"/><path d="m174.616 264.757v226.733h30.905v-222.733c0-2.209-1.791-4-4-4z" fill="#ffca28"/><path d="m367.865 322.772v168.718h30.905v-164.718c0-2.209-1.791-4-4-4z" fill="#5766ce"/><path d="m141.044 383.227h-27.815v-30.905h27.815c8.534 0 15.453 6.918 15.453 15.453 0 8.534-6.918 15.452-15.453 15.452z" fill="#71f6fc"/><path d="m141.044 440.454h-27.815v-30.905h27.815c8.534 0 15.453 6.918 15.453 15.453 0 8.534-6.918 15.452-15.453 15.452z" fill="#71f6fc"/><path d="m370.956 383.227h27.815v-30.905h-27.815c-8.534 0-15.453 6.918-15.453 15.453 0 8.534 6.918 15.452 15.453 15.452z" fill="#71f6fc"/><path d="m370.956 440.454h27.815v-30.905h-27.815c-8.534 0-15.453 6.918-15.453 15.453 0 8.534 6.918 15.452 15.453 15.452z" fill="#71f6fc"/><path d="m141.044 326h-27.815v-30.905h27.815c8.534 0 15.453 6.918 15.453 15.453 0 8.534-6.918 15.452-15.453 15.452z" fill="#71f6fc"/><circle cx="256" cy="109.488" fill="#ffca28" r="16.483"/><path d="m288.157 65.855c-9.317-7.066-20.424-10.802-32.121-10.802-11.731 0-22.868 3.757-32.204 10.865-3.296 2.51-3.934 7.216-1.425 10.511 2.519 3.307 7.229 3.925 10.511 1.425 6.703-5.104 14.697-7.801 23.118-7.801 8.396 0 16.369 2.681 23.057 7.753 3.301 2.504 8.005 1.857 10.508-1.443s1.857-8.005-1.444-10.508z" fill="#ffca28"/><path d="m301.127 42.281c-13.087-9.932-28.68-15.181-45.091-15.181-16.453 0-32.073 5.271-45.173 15.242-3.296 2.509-3.934 7.215-1.425 10.511s7.216 3.933 10.511 1.425c10.466-7.967 22.944-12.178 36.087-12.178 13.109 0 25.566 4.194 36.024 12.13 3.299 2.503 8.003 1.858 10.508-1.441 2.504-3.299 1.859-8.004-1.441-10.508z" fill="#ffca28"/><path d="m313.59 19.383c-16.7-12.681-36.602-19.383-57.554-19.383-20.994 0-40.924 6.724-57.634 19.443-3.296 2.509-3.934 7.215-1.425 10.511s7.216 3.933 10.511 1.425c14.076-10.715 30.864-16.379 48.548-16.379 17.648 0 34.414 5.646 48.483 16.33 3.298 2.504 8.004 1.86 10.509-1.438s1.861-8.004-1.438-10.509z" fill="#ffca28"/><path d="m496.547 512h-481.094c-8.535 0-15.453-6.918-15.453-15.453 0-8.534 6.918-15.453 15.453-15.453h481.095c8.534 0 15.453 6.918 15.453 15.453-.001 8.535-6.919 15.453-15.454 15.453z" fill="#4380a0"/><path d="m496.547 481.095h-30.905c8.534 0 15.453 6.918 15.453 15.453 0 8.534-6.918 15.453-15.453 15.453h30.905c8.534 0 15.453-6.918 15.453-15.453s-6.918-15.453-15.453-15.453z" fill="#3b7191"/><path d="m385.809 180.186h-51.706c-5.656 0-10.241-4.585-10.241-10.241 0-11.602 9.405-21.007 21.007-21.007h40.94c3.093 0 5.6 2.507 5.6 5.6v20.049c0 3.092-2.508 5.599-5.6 5.599z" fill="#4380a0"/><path d="m82.151 248.709h-51.706c-5.656 0-10.241-4.585-10.241-10.241 0-11.602 9.405-21.007 21.007-21.007h40.94c3.093 0 5.6 2.507 5.6 5.6v20.049c0 3.092-2.507 5.599-5.6 5.599z" fill="#4380a0"/><path d="m406.653 70.678h51.706c5.656 0 10.241-4.585 10.241-10.241 0-11.602-9.405-21.007-21.007-21.007h-40.94c-3.093 0-5.6 2.507-5.6 5.6v20.049c0 3.092 2.508 5.599 5.6 5.599z" fill="#4380a0"/><g fill="#71f6fc"><path d="m71.51 87.57c0 4.14-3.36 7.5-7.5 7.5h-18.77v-15h18.77c4.14 0 7.5 3.35 7.5 7.5z"/><path d="m140.01 80.07v15h-18.77c-4.14 0-7.5-3.36-7.5-7.5 0-4.15 3.36-7.5 7.5-7.5z"/><path d="m97.501 80.065h-9.75c-4.143 0-7.5 3.357-7.5 7.5s3.357 7.5 7.5 7.5h9.75c4.143 0 7.5-3.357 7.5-7.5s-3.357-7.5-7.5-7.5z"/><path d="m470.88 257.14v15h-45.7c-4.14 0-7.5-3.35-7.5-7.5 0-4.14 3.36-7.5 7.5-7.5z"/><path d="m470.88 291.64v15h-45.7c-4.14 0-7.5-3.35-7.5-7.5 0-4.14 3.36-7.5 7.5-7.5z"/><path d="m470.88 326.14v15h-45.7c-4.14 0-7.5-3.35-7.5-7.5 0-4.14 3.36-7.5 7.5-7.5z"/><path d="m470.88 360.64v15h-45.7c-4.14 0-7.5-3.36-7.5-7.5s3.36-7.5 7.5-7.5z"/><path d="m470.88 395.14v15h-45.7c-4.14 0-7.5-3.36-7.5-7.5s3.36-7.5 7.5-7.5z"/><path d="m470.88 429.64v15h-45.7c-4.14 0-7.5-3.36-7.5-7.5s3.36-7.5 7.5-7.5z"/></g></svg>