<svg id="Capa_1" enable-background="new 0 0 512.011 512.011" height="512" viewBox="0 0 512.011 512.011" width="512" xmlns="http://www.w3.org/2000/svg"><g><path d="m406.006 16.006h-30c-8.291 0-15 6.709-15 15v75l60 30v-105c0-8.291-6.709-15-15-15z" fill="#32393f"/><path d="m256.006 62.778-195 97.5v320.728c0 8.291 6.709 15 15 15h180 180c8.291 0 15-6.709 15-15v-320.728z" fill="#edf5ff"/><path d="m451.006 481.006v-320.728l-195-97.5v433.228h180c8.291 0 15-6.709 15-15z" fill="#d5e8fe"/><path d="m316.006 196.006c-29.795 0-48.691 17.007-60 33.442-11.309-16.436-30.205-33.442-60-33.442-42.056 0-75 35.479-75 80.757 0 48.662 37.441 80.566 94.116 128.862 9.741 8.306 20.112 17.139 31.011 26.675 2.827 2.476 6.343 3.706 9.873 3.706s7.046-1.23 9.873-3.706c10.898-9.536 21.27-18.369 31.011-26.675 56.675-48.296 94.116-80.2 94.116-128.862 0-45.279-32.945-80.757-75-80.757z" fill="#f69"/><path d="m296.889 405.625c56.675-48.296 94.116-80.2 94.116-128.862 0-45.278-32.944-80.757-75-80.757-29.795 0-48.691 17.007-60 33.442v206.558c3.53 0 7.046-1.23 9.873-3.706 10.899-9.537 21.27-18.37 31.011-26.675z" fill="#e6455f"/><path d="m503.715 167.588-241-120c-2.109-1.055-4.409-1.582-6.709-1.582s-4.6.527-6.709 1.582l-241 120c-7.412 3.706-10.415 12.715-6.709 20.127s12.729 10.386 20.127 6.709l234.291-116.646 234.291 116.646c7.48 3.713 16.436.652 20.127-6.709 3.706-7.412.703-16.421-6.709-20.127z" fill="#f69"/><path d="m510.424 187.715c3.706-7.412.703-16.421-6.709-20.127l-241-120c-2.109-1.055-4.409-1.582-6.709-1.582v31.772l234.291 116.646c7.48 3.713 16.435.651 20.127-6.709z" fill="#e6455f"/></g></svg>