<svg id="Capa_1" enable-background="new 0 0 512 512" height="512" viewBox="0 0 512 512" width="512" xmlns="http://www.w3.org/2000/svg"><g><g><path d="m105 151c-8.291 0-15-6.709-15-15v-60c0-8.291 6.709-15 15-15s15 6.709 15 15v60c0 8.291-6.709 15-15 15z" fill="#474f54"/></g><g><path d="m45 151c-8.291 0-15-6.709-15-15v-90c0-8.291 6.709-15 15-15s15 6.709 15 15v90c0 8.291-6.709 15-15 15z" fill="#474f54"/></g><path d="m391 76v120h-151v-120c0-8.401 6.599-15 15-15h121c8.401 0 15 6.599 15 15z" fill="#ffe470"/><path d="m391 76v120h-75v-135h60c8.401 0 15 6.599 15 15z" fill="#fabe2c"/><path d="m451 331h-135l-15-30v-90l15-30h120c8.284 0 15 6.716 15 15z" fill="#ff9100"/><path d="m180 181h136v150h-136z" fill="#fabe2c"/><path d="m195 121h-180c-8.291 0-15 6.709-15 15v165l30 30h165c8.291 0 15-6.709 15-15v-180c0-8.291-6.709-15-15-15z" fill="#edf5ff"/><path d="m135 196h-15v-15c0-8.291-6.709-15-15-15s-15 6.709-15 15v15h-15c-8.291 0-15 6.709-15 15s6.709 15 15 15h15v15c0 8.291 6.709 15 15 15s15-6.709 15-15v-15h15c8.291 0 15-6.709 15-15s-6.709-15-15-15z" fill="#e6455f"/><path d="m497 241h-181c-8.555 0-14.885 7.097-15.005 15.65-.348 24.516-21.398 44.35-45.995 44.35h-255v165h15c15 0 21.709-5.039 31.011-11.997 10.678-8.027 23.994-18.003 48.984-18.003 25.005 0 38.306 9.976 48.999 18.003 9.302 6.958 16.011 11.997 31.011 11.997s21.709-5.039 30.996-11.997c10.693-8.027 23.994-18.003 48.999-18.003s39.306 9.976 49.999 18.003c3.829 2.867 7.288 5.275 11.001 7.273 5.295 2.849 11.179 4.724 19.995 4.724 15 0 21.709-5.039 31.011-11.997 10.693-8.027 23.994-18.003 48.999-18.003 14.57 0 24.915 3.503 33.34 7.921 37.816-30.663 62.655-77.023 62.655-127.921v-60c0-8.286-6.716-15-15-15z" fill="#474f54"/><path d="m367.006 454.003c10.693-8.027 23.994-18.003 48.999-18.003 14.57 0 24.915 3.503 33.34 7.921 37.816-30.663 62.655-77.023 62.655-127.921v-60c0-8.286-6.716-15-15-15h-181v220.276c5.295 2.849 11.179 4.724 19.995 4.724 15 0 21.709-5.039 31.011-11.997z" fill="#32393f"/><g><circle cx="376" cy="316" fill="#d5e8fe" r="15"/></g><g><circle cx="436" cy="316" fill="#d5e8fe" r="15"/></g><path d="m497 451c-15 0-22.709-5.039-32.011-11.997-10.678-8.027-23.994-18.003-48.984-18.003-25.005 0-38.306 9.976-48.999 18.003-9.302 6.958-16.011 11.997-31.011 11.997-8.817 0-14.7-1.875-19.995-4.724-3.713-1.998-7.172-4.406-11.001-7.273-10.693-8.027-24.994-18.003-49.999-18.003s-38.306 9.976-48.999 18.003c-9.287 6.958-15.996 11.997-30.996 11.997s-21.709-5.039-31.011-11.997c-10.693-8.027-23.994-18.003-48.999-18.003-24.99 0-38.306 9.976-48.984 18.003-9.302 6.958-16.011 11.997-31.011 11.997-8.291 0-15 6.709-15 15s6.709 15 15 15c25.005 0 38.306-9.976 48.999-18.003 9.287-6.958 15.996-11.997 30.996-11.997s21.709 5.039 31.011 11.997c10.693 8.027 23.994 18.003 48.999 18.003 24.99 0 38.306-9.976 48.984-18.003 9.302-6.958 16.011-11.997 31.011-11.997s22.709 5.039 32.011 11.997c7.341 5.517 16.223 11.75 28.989 15.238 5.808 1.586 12.182 2.765 19.995 2.765 25.005 0 38.306-9.976 48.999-18.003 9.302-6.958 16.011-11.997 31.011-11.997s21.709 5.039 30.996 11.997c10.693 8.027 24.994 18.003 49.999 18.003 8.291 0 15-6.709 15-15s-6.709-15-15-15z" fill="#97e4fd"/><path d="m384.994 462.997c9.302-6.958 16.011-11.997 31.011-11.997s21.709 5.039 30.996 11.997c10.693 8.027 24.994 18.003 49.999 18.003 8.291 0 15-6.709 15-15s-6.709-15-15-15c-15 0-22.709-5.039-32.011-11.997-10.678-8.027-23.994-18.003-48.984-18.003-25.005 0-38.306 9.976-48.999 18.003-9.302 6.958-16.011 11.997-31.011 11.997-8.817 0-14.7-1.875-19.995-4.724v31.959c5.808 1.586 12.182 2.765 19.995 2.765 25.005 0 38.306-9.976 48.999-18.003z" fill="#7dc1fc"/></g></svg>