<svg id="Layer_1" height="512" viewBox="0 0 512 512" width="512" xmlns="http://www.w3.org/2000/svg" data-name="Layer 1"><path d="m497.22 47.84c.14 3.09.22 6.16.22 9.21a192.591 192.591 0 0 1 -3.19 35l-.21-.04a82.7 82.7 0 0 1 -40.61-36.81l-.1-.19a192.782 192.782 0 0 1 43.89-7.17z" fill="#5f6a78"/><path d="m373.28 237.6q-5.415 2.085-10.99 3.84l-15.35-13.97-13.48-12.28-16.72-15.21q1.17-5.31 2.65-10.51a193.1 193.1 0 0 1 27.16-57.72 195.747 195.747 0 0 1 106.78-76.74l.1.19a82.7 82.7 0 0 0 40.61 36.81l.21.04a193.531 193.531 0 0 1 -66.54 113.59 192.508 192.508 0 0 1 -54.43 31.96z" fill="#e5f5fd"/><path d="m433.52 266.18-35.39 39.44-22.59-20.83a33.639 33.639 0 0 1 -2.26-47.19 192.508 192.508 0 0 0 54.43-31.96l.03.03a22.748 22.748 0 0 0 4.32 28.32 22.755 22.755 0 0 1 1.51 32.13z" fill="#5f6a78"/><path d="m398.13 305.62 35.39-39.44c-6.58 100.73-90.83 180.41-193.8 180.41a194.6 194.6 0 0 1 -73.95-14.49v-.01c103.28-56.69 156.88-141.28 173.77-171.32l.43-.47.39.36 6.58-33.19 15.35 13.97q5.565-1.755 10.99-3.84a33.639 33.639 0 0 0 2.26 47.19z" fill="#49bdff"/><path d="m366.6 107.26a196.108 196.108 0 0 0 -20.05 24.49 22.765 22.765 0 0 1 -28.6-1.64 22.754 22.754 0 0 0 -32.14 1.5l-36 38.98 22.85 20.55a33.667 33.667 0 0 0 46.73-1.67q-1.485 5.205-2.65 10.51l16.72 15.21-33.44 8.74.35.32c-9.16 12.43-31.56 42.14-59.54 74.48l-5.15-6.02c-.79-.92-1.54-1.88-2.25-2.87l-10.11-14.01c-5.59-7.75-14.53-12.89-24.13-12.64a4.961 4.961 0 0 1 -2.74-.72l-20.66-12.32a20.2 20.2 0 0 0 -19.75-.48l-10.89 5.8a21.46 21.46 0 0 1 -28.17-7.37l-10.58-16.6a22.773 22.773 0 0 1 .39-25.06 25.942 25.942 0 0 1 24.82-11.16l15.86 2.01a14.29 14.29 0 0 0 14.17-6.76 25.1 25.1 0 0 1 24.85-12.19l6.93.88a14.186 14.186 0 0 0 12.92-5.33l6.11-7.89a20.438 20.438 0 0 0 .62-24.31l-13.18-18.89a60.759 60.759 0 0 0 -19.3-17.77 60.869 60.869 0 0 1 -5.81-3.85l-11.11-8.29-14.07-10.53a195.227 195.227 0 0 1 217 24.9z" fill="#49bdff"/><path d="m300.37 224.25-.35-.32 33.44-8.74 13.48 12.28-6.58 33.19-.39-.36z" fill="#4a5160"/><path d="m339.97 260.3-.43.47c-16.89 30.04-70.49 114.63-173.77 171.32a429.546 429.546 0 0 1 -55.61 25.55s-177.35 54.02-48.92-127.41c-68.22 132.37 56.68 76.9 59.22 75.68l.01-.01c16.5-8.09 34.35-21.28 52.22-37.02 23.71-20.87 47.45-46.23 68.14-70.15 27.98-32.34 50.38-62.05 59.54-74.48z" fill="#fadf4a"/><path d="m317.95 130.11a22.765 22.765 0 0 0 28.6 1.64 193.1 193.1 0 0 0 -27.16 57.72 33.667 33.667 0 0 1 -46.73 1.67l-22.85-20.55 36-38.98a22.754 22.754 0 0 1 32.14-1.5z" fill="#5f6a78"/><path d="m235.68 292.71 5.15 6.02c-20.69 23.92-44.43 49.28-68.14 70.15l-.66-.74a28.185 28.185 0 0 0 -4.65-9.11l-22.43-29.24a25.915 25.915 0 0 1 -4.4-8.82l-7.4-26.55a28.052 28.052 0 0 0 -19.6-19.41l-1.61-.43a20.888 20.888 0 0 1 -8.74-4.87l-13.81-12.92a31.32 31.32 0 0 1 -5.58-6.98 30.8 30.8 0 0 0 -32.48-14.66l-2.65.52-2.33-.22c6.19-66.62 46.43-123.44 103.25-153.09l14.07 10.53 11.11 8.29a60.869 60.869 0 0 0 5.81 3.85 60.759 60.759 0 0 1 19.3 17.77l13.18 18.89a20.438 20.438 0 0 1 -.62 24.31l-6.11 7.89a14.186 14.186 0 0 1 -12.92 5.33l-6.93-.88a25.1 25.1 0 0 0 -24.85 12.19 14.29 14.29 0 0 1 -14.17 6.76l-15.86-2.01a25.942 25.942 0 0 0 -24.82 11.16 22.773 22.773 0 0 0 -.39 25.06l10.58 16.6a21.46 21.46 0 0 0 28.17 7.37l10.89-5.8a20.2 20.2 0 0 1 19.75.48l20.66 12.32a4.961 4.961 0 0 0 2.74.72c9.6-.25 18.54 4.89 24.13 12.64l10.11 14.01c.71.99 1.46 1.95 2.25 2.87z" fill="#9be147"/><path d="m172.03 368.14.66.74c-17.87 15.74-35.72 28.93-52.22 37.02l-.01.01a193.941 193.941 0 0 1 -59.04-75.76 191.509 191.509 0 0 1 -15.91-76.68q0-9.12.84-18.02l2.33.22 2.65-.52a30.8 30.8 0 0 1 32.48 14.66 31.32 31.32 0 0 0 5.58 6.98l13.81 12.92a20.888 20.888 0 0 0 8.74 4.87l1.61.43a28.052 28.052 0 0 1 19.6 19.41l7.4 26.55a25.915 25.915 0 0 0 4.4 8.82l22.43 29.24a28.185 28.185 0 0 1 4.65 9.11z" fill="#49bdff"/><path d="m428.16 123.7a24.086 24.086 0 1 1 -34.03 1.6 24.093 24.093 0 0 1 34.03-1.6z" fill="#5f6a78"/><path d="m322 258.44a13.67 13.67 0 0 1 -.34 3.8 13.886 13.886 0 0 1 -11.18 10.53l-17.55 3.02 1.36-17.76a13.882 13.882 0 0 1 27.71.41z" fill="#ed6337"/><path d="m239.72 60.35a194.166 194.166 0 0 0 -90.12 22.01l14.07 10.53 11.11 8.29 2.82 1.18a195.4 195.4 0 0 1 188.888 4.806 194.1 194.1 0 0 0 -126.768-46.816z" fill="#3090fc"/><path d="m176.952 102.711c-.732-.5-1.463-1-2.172-1.531l-11.11-8.29-14.07-10.53c-56.82 29.65-97.06 86.47-103.25 153.09l2.33.22 2.65-.52a30.749 30.749 0 0 1 24.912 6.012c10.184-60.152 48.336-110.867 100.71-138.451z" fill="#50dd5a"/><path d="m92.42 337.15a191.509 191.509 0 0 1 -15.91-76.68q0-9.12.84-18.02l.491.046a30.772 30.772 0 0 0 -26.511-7.346l-2.65.52-2.33-.22q-.84 8.9-.84 18.02a191.509 191.509 0 0 0 15.91 76.68 193.941 193.941 0 0 0 59.04 75.76l.01-.01a157.093 157.093 0 0 0 13.983-7.846 193.413 193.413 0 0 1 -42.033-60.904z" fill="#3090fc"/><g fill="#ccd3df"><path d="m97.859 84.941a6 6 0 0 1 -3.771-10.67c3.988-3.217 8.128-6.337 12.3-9.271a6 6 0 1 1 6.9 9.818c-3.96 2.783-7.886 5.741-11.669 8.793a5.974 5.974 0 0 1 -3.76 1.33z"/><path d="m28.562 180a6 6 0 0 1 -5.608-8.134 228.6 228.6 0 0 1 52.972-81.312 6 6 0 1 1 8.461 8.508 216.68 216.68 0 0 0 -50.216 77.066 6 6 0 0 1 -5.609 3.872z"/><path d="m422.723 390.838a6 6 0 0 1 -4.843-9.535c3.877-5.318 7.547-10.862 10.907-16.48a6 6 0 0 1 10.3 6.16c-3.547 5.929-7.42 11.78-11.511 17.39a5.99 5.99 0 0 1 -4.853 2.465z"/><path d="m444.05 354.969a6 6 0 0 1 -5.419-8.57c1.826-3.856 3.563-7.826 5.161-11.8 2.6-6.471 4.914-13.151 6.873-19.853a217.279 217.279 0 0 0 7.008-33.829 221.753 221.753 0 0 0 1.7-27.442 6 6 0 0 1 12 0 233.739 233.739 0 0 1 -1.8 28.933 229.166 229.166 0 0 1 -7.4 35.7c-2.068 7.077-4.509 14.13-7.256 20.963-1.689 4.2-3.522 8.391-5.45 12.463a6 6 0 0 1 -5.417 3.435z"/><path d="m132.44 63.6a6.92 6.92 0 1 1 6.925-6.919 6.929 6.929 0 0 1 -6.925 6.919z"/><path d="m406.189 410.289a6.92 6.92 0 1 1 6.925-6.919 6.929 6.929 0 0 1 -6.925 6.919z"/></g><path d="m344.526 495.89a8.012 8.012 0 1 1 8.012-8.013 8.022 8.022 0 0 1 -8.012 8.013z" fill="#d8ff33"/><path d="m356.6 472.752a11.03 11.03 0 1 1 11.03-11.03 11.043 11.043 0 0 1 -11.03 11.03z" fill="#d8ff33"/><path d="m40.721 55.272a8.012 8.012 0 1 1 8.012-8.012 8.021 8.021 0 0 1 -8.012 8.012z" fill="#d8ff33"/><path d="m52.793 32.134a11.03 11.03 0 1 1 11.029-11.034 11.042 11.042 0 0 1 -11.029 11.034z" fill="#d8ff33"/><path d="m188.582 20.444a17.985 17.985 0 0 1 -11.3-11.337 6 6 0 0 0 -11.387 0 17.982 17.982 0 0 1 -11.3 11.337 6 6 0 0 0 0 11.381 17.98 17.98 0 0 1 11.3 11.336 6 6 0 0 0 11.387 0 17.982 17.982 0 0 1 11.3-11.336 6 6 0 0 0 0-11.381z" fill="#50a6ea"/><path d="m237.875 480.175a17.982 17.982 0 0 1 -11.3-11.336 6 6 0 0 0 -11.387 0 17.98 17.98 0 0 1 -11.3 11.336 6 6 0 0 0 0 11.381 17.982 17.982 0 0 1 11.3 11.337 6 6 0 0 0 11.387 0 17.983 17.983 0 0 1 11.3-11.337 6 6 0 0 0 0-11.381z" fill="#50a6ea"/><path d="m490.375 427.864a17.982 17.982 0 0 1 -11.3-11.336 6 6 0 0 0 -11.387 0 17.98 17.98 0 0 1 -11.3 11.336 6 6 0 0 0 0 11.381 17.982 17.982 0 0 1 11.3 11.337 6 6 0 0 0 11.387 0 17.985 17.985 0 0 1 11.3-11.337 6 6 0 0 0 0-11.381z" fill="#50a6ea"/><path d="m198.032 393.443a6 6 0 0 1 -3.706-10.722q1.413-1.107 2.806-2.219a6 6 0 0 1 7.482 9.382q-1.434 1.143-2.884 2.281a5.98 5.98 0 0 1 -3.698 1.278z" fill="#d8ba3a"/><path d="m213.924 380.366a6 6 0 0 1 -3.924-10.543c4.992-4.307 9.961-8.8 14.77-13.344a6 6 0 0 1 8.245 8.72c-4.941 4.671-10.046 9.283-15.175 13.709a5.98 5.98 0 0 1 -3.916 1.458z" fill="#d8ba3a"/><path d="m241.562 354.379a6 6 0 0 1 -4.291-10.194c9.549-9.77 18.8-20.146 27.5-30.841a6 6 0 0 1 9.309 7.572c-8.929 10.977-18.428 21.628-28.23 31.657a5.987 5.987 0 0 1 -4.288 1.806z" fill="#d8ba3a"/></svg>