<svg height="512pt" viewBox="0 0 512 512" width="512pt" xmlns="http://www.w3.org/2000/svg"><path d="m512 256c0 141.386719-114.613281 256-256 256s-256-114.613281-256-256 114.613281-256 256-256 256 114.613281 256 256zm0 0" fill="#004eb1"/><path d="m512 256c0-1.242188-.027344-2.476562-.046875-3.714844l-179.691406-179.691406c-14.359375-16.667969-35.609375-27.238281-59.339844-27.238281h-37.84375c-43.253906 0-78.320313 35.066406-78.320313 78.320312v3.511719c-40.339843 3.757812-71.921874 37.691406-71.921874 79.011719v23.21875l111.570312 112.082031v90.5h8.257812v8.261719h7.953126v31.265625l40.4375 40.433594c.980468.011718 1.960937.039062 2.945312.039062 141.386719 0 256-114.613281 256-256zm0 0" fill="#002d6b"/><path d="m311.59375 432h-115.1875v-99.679688c0-14.289062 11.582031-25.871093 25.871094-25.871093h63.445312c14.289063 0 25.871094 11.582031 25.871094 25.871093zm0 0" fill="#fff6c7"/><path d="m311.601562 332.320312v99.679688h-57.601562v-125.550781h31.71875c9.820312 0 18.371094 5.472656 22.761719 13.539062 1.988281 3.671875 3.121093 7.871094 3.121093 12.332031zm0 0" fill="#ffdf47"/><path d="m330.789062 229.085938h-30v55.558593l-20.875 21.804688h-17.402343c14.875-3.789063 25.878906-17.273438 25.878906-33.328125 0-18.992188-15.398437-34.390625-34.390625-34.390625s-34.390625 15.398437-34.390625 34.390625c0 16.054687 11.003906 29.539062 25.878906 33.328125h-17.402343l-20.878907-21.804688v-55.554687h-30v67.601562l35.410157 36.984375v137.851563h30v-71.625h22.761718v71.625h30v-137.851563l35.410156-36.984375zm0 0" fill="#ffa7b8"/><path d="m330.789062 229.089844v67.601562l-22.308593 23.296875-13.101563 13.683594v137.859375h-30v-71.632812h-11.378906v-161.167969c18.988281 0 34.390625 15.398437 34.390625 34.390625 0 16.058594-11 29.539062-25.878906 33.328125h17.410156l20.867187-21.800781v-55.558594zm0 0" fill="#ff738e"/><path d="m351.242188 127.1875v-3.511719c0-43.253906-35.066407-78.320312-78.320313-78.320312h-37.84375c-43.253906 0-78.320313 35.066406-78.320313 78.320312v3.511719c-40.339843 3.757812-71.921874 37.691406-71.921874 79.011719v23.21875h338.328124v-23.21875c0-41.320313-31.582031-75.253907-71.921874-79.011719zm0 0" fill="#7fc8f1"/><path d="m423.160156 206.199219v23.222656h-167.160156v-184.0625h16.921875c43.257813 0 78.316406 35.0625 78.316406 78.320313v3.511718c40.339844 3.757813 71.921875 37.6875 71.921875 79.007813zm0 0" fill="#00acea"/><path d="m197.882812 229.417969c0 22.933593-18.59375 41.527343-41.527343 41.527343-22.933594 0-41.523438-18.59375-41.523438-41.527343 0-22.933594 18.589844-41.523438 41.523438-41.523438 22.933593 0 41.527343 18.589844 41.527343 41.523438zm0 0" fill="#57555c"/><path d="m179.359375 229.417969c0 12.707031-10.296875 23.003906-23.003906 23.003906-12.703125 0-23-10.296875-23-23.003906 0-12.703125 10.296875-23.003907 23-23.003907 12.707031 0 23.003906 10.300782 23.003906 23.003907zm0 0" fill="#fff"/><path d="m393.167969 229.417969c0 22.933593-18.59375 41.527343-41.527344 41.527343s-41.523437-18.59375-41.523437-41.527343c0-22.933594 18.589843-41.523438 41.523437-41.523438s41.527344 18.589844 41.527344 41.523438zm0 0" fill="#2a2a2c"/><path d="m374.644531 229.417969c0 12.707031-10.296875 23.003906-23.003906 23.003906-12.703125 0-23-10.296875-23-23.003906 0-12.703125 10.296875-23.003907 23-23.003907 12.707031 0 23.003906 10.300782 23.003906 23.003907zm0 0" fill="#fff5cb"/><path d="m243.488281 58.679688c-45.605469 0-68.507812 30.671874-68.507812 68.507812h86.378906v-68.507812zm0 0" fill="#fff"/><path d="m256 58.679688h5.359375v68.511718h-5.359375zm0 0" fill="#fff5cb"/><path d="m333.019531 127.1875c0-30.886719-12.089843-58.003906-48.53125-65.539062v65.539062zm0 0" fill="#fff5cb"/><path d="m236.320312 154.335938h18.539063c3.589844 0 6.5-2.910157 6.5-6.5v-8.917969h-31.539063v8.917969c0 3.589843 2.910157 6.5 6.5 6.5zm0 0" fill="#57555c"/><path d="m261.359375 138.921875v8.917969c0 3.199218-2.308594 5.859375-5.359375 6.398437v-15.316406zm0 0" fill="#2a2a2c"/><path d="m395.570312 166.953125v27.332031h26.695313c-1.480469-9.8125-4.75-19.042968-9.476563-27.332031zm0 0" fill="#ff0335"/><path d="m124.34375 166.253906v-28.667968c-16.402344 9.542968-29.078125 24.789062-35.289062 43.03125h20.921874c7.933594 0 14.367188-6.429688 14.367188-14.363282zm0 0" fill="#fff"/></svg>